<?xml version="1.0" encoding="utf-8"?>
<!-- Generator: Adobe Illustrator 24.3.0, SVG Export Plug-In . SVG Version: 6.00 Build 0)  -->
<svg version="1.1" id="Layer_1" xmlns="http://www.w3.org/2000/svg" xmlns:xlink="http://www.w3.org/1999/xlink" x="0px" y="0px"
	 viewBox="0 0 100 100" enable-background="new 0 0 100 100" xml:space="preserve">
<g>
	<path fill="#ED9944" d="M95.558,23.039"/>
	<g>
		<polygon fill="#7A695B" points="8.442,76.961 45.599,36.8 59.437,36.8 91.291,76.961 		"/>
		<g>
			<polygon fill="#FFFFFF" points="57.496,59.547 45.316,59.547 43.993,64.656 58.13,64.656 			"/>
			<polygon fill="#FFFFFF" points="47.417,51.435 46.229,56.02 57.058,56.02 56.489,51.435 			"/>
			<polygon fill="#FFFFFF" points="54.874,38.414 54.673,36.8 51.207,36.8 50.788,38.414 			"/>
			<polygon fill="#FFFFFF" points="50.512,39.481 49.566,43.133 55.459,43.133 55.006,39.481 			"/>
			<polygon fill="#FFFFFF" points="42.611,69.989 40.806,76.961 59.657,76.961 58.791,69.989 			"/>
			<polygon fill="#FFFFFF" points="49.164,44.684 48.082,48.864 56.17,48.864 55.652,44.684 			"/>
		</g>
	</g>
</g>
</svg>
